<?xml version="1.0" encoding="utf-8"?>
<!-- Generator: Adobe Illustrator 25.2.3, SVG Export Plug-In . SVG Version: 6.00 Build 0)  -->
<svg version="1.1"
	 id="svg8" inkscape:version="1.0.2 (e86c8708, 2021-01-15)" sodipodi:docname="matt.svg" xmlns:cc="http://creativecommons.org/ns#" xmlns:dc="http://purl.org/dc/elements/1.1/" xmlns:inkscape="http://www.inkscape.org/namespaces/inkscape" xmlns:rdf="http://www.w3.org/1999/02/22-rdf-syntax-ns#" xmlns:sodipodi="http://sodipodi.sourceforge.net/DTD/sodipodi-0.dtd" xmlns:svg="http://www.w3.org/2000/svg"
	 xmlns="http://www.w3.org/2000/svg" xmlns:xlink="http://www.w3.org/1999/xlink" x="0px" y="0px" viewBox="0 0 750 750"
	 style="enable-background:new 0 0 750 750;" xml:space="preserve">
<style type="text/css">
	.st0{fill-rule:evenodd;clip-rule:evenodd;fill:#C7F3FC;}
</style>
<sodipodi:namedview  bordercolor="#666666" borderopacity="1.0" id="base" inkscape:current-layer="layer1" inkscape:cx="349.83032" inkscape:cy="533.2192" inkscape:document-rotation="0" inkscape:document-units="mm" inkscape:pageopacity="0.0" inkscape:pageshadow="2" inkscape:window-height="1027" inkscape:window-maximized="1" inkscape:window-width="1920" inkscape:window-x="1440" inkscape:window-y="25" inkscape:zoom="0.35" pagecolor="#ffffff" showgrid="false">
	</sodipodi:namedview>
<polyline id="rect849_1_" class="st0" points="0,750 0,0 750,0 750,750 "/>
<path id="path847" d="M375.1,750 M142.5,749c-0.3-0.1-0.6-2.5-0.6-6.1v-5.9h6.2h6.2v-6.2v-6.2h6.2h6.2v-12.4v-12.4h6.2h6.2v-18.6
	v-18.6h6.2h6.2v-43.3v-43.3h6.2h6.2v-6.2v-6.2h-6.2h-6.2v-6.2v-6.2h-6.2h-6.2v-24.8v-24.8h-6.2h-6.2v-6.2v-6.2h-6.2h-6.2v-18.6
	v-18.6h-6.2h-6.2V446v-6.2h-6.2h-6.2v-12.4v-12.4h-6.2h-6.2v-12.4v-12.4H111h-6.2v-12.4v-12.4h6.2h6.2v-12.4v-12.4H111h-6.2v-12.4
	V316h6.2h6.2v-55.7v-55.7h6.2h6.2v-12.4v-12.4h6.2h6.2v-12.4V155h6.2h6.2v-6.2v-6.2h6.2h6.2v-6.2v-6.2h6.2h6.2V124v-6.2h6.2h6.2
	v-6.2v-6.2h6.2h6.2v-6.2v-6.2h6.2h6.2v-6.2v-6.2h12.4H241v-6.2v-6.2h12.4h12.4v-6.2v-6.2h6.2h6.2v-6.2v-6.2h18.6h18.6v-6.2v-6.2
	h43.3H402v6.2v6.2h18.6h18.6v6.2v6.2h6.2h6.2v6.2v6.2h12.4h12.4v6.2v6.2h6.2h6.2v6.2v6.2h12.4h12.4v6.2v6.2h6.2h6.2v6.2v6.2h6.2h6.2
	v12.4v12.4h6.2h6.2v6.2v6.2h6.2h6.2v12.4v12.4h6.2h6.2v24.8v24.8h6.2h6.2v43.3V316h6.2h6.2v18.6v18.6H594h-6.2v6.2v6.2h6.2h6.2v12.4
	v12.4H594h-6.2v18.6v18.6h-6.2h-6.2v6.2v6.2h-6.2H563v49.5v49.5h-6.2h-6.2v6.2v6.2h-6.2h-6.2v18.6v18.6h-6.2h-6.2v6.2v6.2h6.2h6.2
	V638v37.2h6.2h6.2v18.6v18.6h6.2h6.2v6.2v6.2h6.2h6.2v6.2v6.2h6.2h6.2v5.9c0,5.2,0.1,5.9,0.9,6.1 M146.9,749.1c-0.4-0.1-1-0.1-1.3,0
	c-0.4,0.1-0.1,0.3,0.7,0.3C147,749.4,147.3,749.3,146.9,749.1z M151.2,749.1c-0.4-0.1-1-0.1-1.3,0c-0.4,0.1-0.1,0.3,0.7,0.3
	C151.3,749.4,151.6,749.3,151.2,749.1z M228.7,743.1l-0.2-6.1h6.2h6.2v5.9c0,3.5-0.2,6-0.5,6.1c-0.3,0.1,61,0.2,136.2,0.2h136.8
	v-6.1v-6.1h6.2h6.2v5.9c0,5.2-0.1,5.9-0.9,6.1c-0.5,0.1,8.4,0.2,19.8,0.2c11.4,0,20.2-0.1,19.5-0.2c-1.2-0.2-1.2-0.4-1.2-6.1v-5.9
	h-6.2h-6.2v-12.4v-12.4h-6.2h-6.2v-18.6v-18.6h-6.2h-6.2v-31v-31h-6.2h-6.2V607v-6.2h-6.2h-6.2v-61.9V477h6.2h6.2v55.7v55.7h6.2h6.2
	v-74.3v-74.3h6.2h6.2v49.5v49.5h6.2h6.2v-49.5v-49.5h6.2h6.2v-6.2v-6.2h6.2h6.2v-24.8v-24.8h6.2h6.2v-6.2v-6.2h-6.2h-6.2v-12.4
	v-12.4h6.2h6.2v-6.2v-6.2h-18.6h-18.6v6.2v6.2h-6.2h-6.2v-18.6v-18.6h6.2h6.2v6.2v6.2H563h12.4v-43.3v-43.3h-6.2H563v-24.8v-24.8
	h-6.2h-6.2v-12.4V155h-6.2h-6.2v-6.2v-6.2h-6.2h-6.2v-12.4v-12.4h-6.2h-6.2v-6.2v-6.2h-12.4h-12.4v-6.2v-6.2h-6.2h-6.2v-6.2v-6.2
	h-12.4h-12.4v-6.2v-6.2h-6.2h-6.2v-6.2v-6.2h-18.6H402v-6.2v-6.2h-43.3h-43.3v6.2v6.2h-18.6h-18.6v6.2v6.2H272h-6.2v6.2v6.2h-12.4
	H241v6.2v6.2h-12.4h-12.4v6.2v6.2h-6.2h-6.2v6.2v6.2h-6.2h-6.2v6.2v6.2h-6.2h-6.2v6.2v6.2h-6.2h-6.2v6.2v6.2h-6.2h-6.2v12.4v12.4
	h-6.2h-6.2v12.4v12.4h-6.2h-6.2v55.7V316h-6.2h-6.2v12.4v12.4h6.2h6.2v12.4v12.4h-6.2h-6.2v12.4v12.4h6.2h6.2v-6.2v-6.2h6.2h6.2
	v12.4v12.4h-6.2h-6.2v6.2v6.2h6.2h6.2v12.4v12.4h6.2h6.2v-24.8v-24.8h6.2h6.2v49.5v49.5h6.2h6.2v-24.8v-24.8h6.2h6.2v55.7v55.7h6.2
	h6.2v-37.2V477h6.2h6.2v55.7v55.7h-6.2h-6.2v37.2v37.2h-6.2h-6.2v18.6v18.6h-6.2h-6.2v12.4v12.4h-6.2h-6.2v6.2v6.2h-6.2h-6.2
	l-0.2,6.1l-0.2,6.1h37.4h37.4L228.7,743.1z M216.2,730.9v-6.2h-6.2h-6.2v-31v-31h6.2h6.2v31v31h6.2h6.2v6.2v6.2h-6.2h-6.2V730.9z
	 M525.9,724.7v-12.4h6.2h6.2v12.4v12.4h-6.2h-6.2V724.7z M352.5,706.1v-6.2h-6.2h-6.2v-12.4v-12.4h6.2h6.2v12.4v12.4h6.2h6.2v6.2
	v6.2h-6.2h-6.2V706.1z M377.2,693.7v-18.6h6.2h6.2v18.6v18.6h-6.2h-6.2L377.2,693.7z M402,693.7v-18.6h12.4h12.4v6.2v6.2h-6.2h-6.2
	v12.4v12.4h-6.2H402L402,693.7z M439.2,693.7v-18.6h6.2h6.2v18.6v18.6h-6.2h-6.2V693.7z M290.6,681.3v-18.6h6.2h6.2v18.6v18.6h-6.2
	h-6.2V681.3z M315.3,687.5v-12.4h6.2h6.2v12.4v12.4h-6.2h-6.2V687.5z M265.8,669v-18.6h6.2h6.2V669v18.6H272h-6.2V669z M463.9,675.2
	v-12.4h6.2h6.2v12.4v12.4h-6.2h-6.2V675.2z M241,656.6V638h6.2h6.2v18.6v18.6h-6.2H241V656.6z M488.7,656.6V638h-6.2h-6.2v6.2v6.2
	h-18.6h-18.6v6.2v6.2h-49.5h-49.5v-6.2v-6.2h-24.8h-24.8v-6.2V638h-12.4h-12.4v-6.2v-6.2h-12.4H241v-6.2v-6.2h-6.2h-6.2v18.6v18.6
	h-6.2h-6.2v-18.6v-18.6h6.2h6.2V607v-6.2h-6.2h-6.2v-6.2v-6.2h6.2h6.2v-43.3v-43.3h6.2h6.2v55.7v55.7h6.2h6.2v-55.7v-55.7h6.2h6.2
	v61.9v61.9h6.2h6.2V607v-18.6h6.2h6.2v24.8V638h18.6h18.6v-24.8v-24.8h6.2h6.2v31v31h18.6h18.6v-31v-31h6.2h6.2v31v31h24.8h24.8
	v-6.2V638H433h-6.2v-31v-31h6.2h6.2v24.8v24.8h6.2h6.2v-24.8v-24.8h6.2h6.2v24.8v24.8h12.4h12.4v-6.2v-6.2h-6.2h-6.2v-61.9v-61.9
	h6.2h6.2v55.7v55.7h6.2h6.2v6.2v6.2h6.2h6.2v12.4V638h-6.2h-6.2v18.6v18.6h-6.2h-6.2L488.7,656.6z M463.9,631.8v-6.2h-6.2h-6.2v6.2
	v6.2h6.2h6.2V631.8z M501.1,631.8v-6.2h-6.2h-6.2v6.2v6.2h6.2h6.2V631.8z M352.5,619.4v-18.6h6.2h6.2v18.6V638h-6.2h-6.2V619.4z
	 M402,613.2v-24.8h6.2h6.2v24.8V638h-6.2H402V613.2z M302.9,607v-18.6h6.2h6.2V607v18.6h-6.2h-6.2V607z M278.2,551.3v-24.8h6.2h6.2
	v24.8v24.8h-6.2h-6.2V551.3z M302.9,563.7v-12.4h6.2h6.2v12.4v12.4h-6.2h-6.2V563.7z M327.7,551.3v-12.4h6.2h6.2v12.4v12.4h-6.2
	h-6.2V551.3z M352.5,551.3v-12.4h6.2h6.2v12.4v12.4h-6.2h-6.2V551.3z M377.2,551.3v-12.4h6.2h6.2v12.4v12.4h-6.2h-6.2V551.3z
	 M402,551.3v-12.4h6.2h6.2v12.4v12.4h-6.2H402V551.3z M426.8,551.3v-12.4h6.2h6.2v12.4v12.4H433h-6.2V551.3z M451.6,538.9v-12.4h6.2
	h6.2v12.4v12.4h-6.2h-6.2V538.9z M327.7,520.3v-6.2h-12.4h-12.4V508v-6.2h-6.2h-6.2v-6.2v-6.2h6.2h6.2v6.2v6.2h12.4h12.4v6.2v6.2
	h49.5h49.5V508v-6.2h12.4h12.4v-6.2v-6.2h6.2h6.2v6.2v6.2h-6.2h-6.2v6.2v6.2h-12.4h-12.4v6.2v6.2h-49.5h-49.5L327.7,520.3z
	 M327.7,483.2V477h6.2h6.2v6.2v6.2h-6.2h-6.2V483.2z M352.5,477v-12.4h6.2h6.2V477v12.4h-6.2h-6.2V477z M377.2,477v-12.4h6.2h6.2
	v-6.2v-6.2h6.2h6.2V446v-6.2h12.4h12.4v-12.4v-12.4h-6.2h-6.2v-12.4v-12.4h-6.2H402v-18.6v-18.6h6.2h6.2V347v-6.2h-6.2H402V316
	v-24.8h-18.6h-18.6V316v24.8h-6.2h-6.2v6.2v6.2h-6.2h-6.2v6.2v6.2h-6.2h-6.2v6.2v6.2h-31h-31v-6.2v-6.2h-12.4H241v-6.2v-6.2h-6.2
	h-6.2V347v-6.2h-6.2h-6.2v-6.2v-6.2h-6.2h-6.2v-6.2V316h6.2h6.2v-6.2v-6.2h6.2h6.2v-12.4v-12.4h6.2h6.2v-6.2v-6.2h49.5h49.5v6.2v6.2
	h6.2h6.2v6.2v6.2h6.2h6.2V285v-6.2h18.6H402v6.2v6.2h6.2h6.2V285v-6.2h6.2h6.2v-6.2v-6.2h49.5h49.5v6.2v6.2h6.2h6.2v12.4v12.4h-6.2
	h-6.2v-12.4v-12.4h-49.5h-49.5v6.2v6.2h-6.2h-6.2V316v24.8h6.2h6.2v6.2v6.2h6.2h6.2v6.2v6.2h31h31v-6.2v-6.2h12.4h12.4V347v-6.2h6.2
	h6.2v6.2v6.2h-6.2h-6.2v6.2v6.2h-12.4h-12.4v6.2v6.2h-31h-31v-6.2v-6.2H433h-6.2v-6.2v-6.2h-6.2h-6.2v18.6v18.6h6.2h6.2v12.4v12.4
	h6.2h6.2v12.4v12.4H433h-6.2v6.2v6.2h-12.4H402v6.2v6.2h6.2h6.2V477v12.4h-6.2H402V477v-12.4h-6.2h-6.2V477v12.4h-6.2h-6.2
	L377.2,477z M327.7,359.3v-6.2h6.2h6.2V347v-6.2h6.2h6.2V316v-24.8h-6.2h-6.2V285v-6.2h-49.5H241v12.4v12.4h-6.2h-6.2v18.6v18.6h6.2
	h6.2v6.2v6.2h12.4h12.4v6.2v6.2h31h31V359.3z M278.2,322.2v-18.6h12.4h12.4v18.6v18.6h-12.4h-12.4V322.2z M426.8,483.2V477h6.2h6.2
	v6.2v6.2H433h-6.2V483.2z M352.5,446v-6.2h-6.2h-6.2v-6.2v-6.2h6.2h6.2v6.2v6.2h12.4h12.4v6.2v6.2h-12.4h-12.4V446z M463.9,322.2
	v-18.6h12.4h12.4v18.6v18.6h-12.4h-12.4V322.2z M129.6,322.2V316h31h31v6.2v6.2h-31h-31V322.2z M233.1,749.1c-0.4-0.1-1-0.1-1.3,0
	c-0.4,0.1-0.1,0.3,0.7,0.3C233.1,749.4,233.4,749.3,233.1,749.1z M237.4,749.1c-0.4-0.1-1-0.1-1.3,0c-0.4,0.1-0.1,0.3,0.7,0.3
	C237.4,749.4,237.8,749.3,237.4,749.1z M517.4,749.1c-0.4-0.1-1-0.1-1.3,0c-0.4,0.1-0.1,0.3,0.7,0.3
	C517.5,749.4,517.8,749.3,517.4,749.1z M521.7,749.1c-0.4-0.1-1-0.1-1.3,0c-0.4,0.1-0.1,0.3,0.7,0.3
	C521.8,749.4,522.1,749.3,521.7,749.1L521.7,749.1z M569.1,749.1c-0.4-0.1-1-0.1-1.3,0c-0.4,0.1-0.1,0.3,0.7,0.3
	C569.1,749.4,569.4,749.3,569.1,749.1z M573.4,749.1c-0.4-0.1-1-0.1-1.3,0c-0.4,0.1-0.1,0.3,0.7,0.3
	C573.5,749.4,573.8,749.3,573.4,749.1L573.4,749.1z M577.7,749.1c-0.4-0.1-1-0.1-1.3,0c-0.4,0.1-0.1,0.3,0.7,0.3
	S578.1,749.3,577.7,749.1L577.7,749.1z M582,749.1c-0.4-0.1-1-0.1-1.3,0c-0.4,0.1-0.1,0.3,0.7,0.3
	C582.1,749.4,582.4,749.3,582,749.1L582,749.1z M586.3,749.1c-0.4-0.1-1-0.1-1.3,0c-0.4,0.1-0.1,0.3,0.7,0.3
	C586.4,749.4,586.7,749.3,586.3,749.1L586.3,749.1z"/>
</svg>
