<?xml version="1.0" encoding="utf-8"?>
<!-- Generator: Adobe Illustrator 25.2.3, SVG Export Plug-In . SVG Version: 6.00 Build 0)  -->
<svg version="1.1" id="Layer_1" xmlns="http://www.w3.org/2000/svg" xmlns:xlink="http://www.w3.org/1999/xlink" x="0px" y="0px"
	 viewBox="0 0 171.7 51.6" style="enable-background:new 0 0 171.7 51.6;" xml:space="preserve">
<style type="text/css">
	.st0{fill:#FFFFFF;}
	.st1{fill-rule:evenodd;clip-rule:evenodd;}
</style>
<rect class="st0" width="171.3" height="51.6"/>
<g id="search">
	<path class="st1" d="M19.3,11.6c3.7-3.8,8.6-5.8,14.1-5.8c5.5,0,10.4,2,14.3,5.9c3.8,3.8,5.8,8.7,5.8,14.1c0,5.5-2,10.3-5.7,14
		c-4,3.9-9.1,6-14.3,6c-5.3,0-10.3-2.1-14.1-5.9c-3.8-3.8-5.9-8.8-5.9-14.1C13.3,20.5,15.4,15.5,19.3,11.6z M45,14.2
		c-3.1-3.1-7.1-4.8-11.6-4.8s-8.5,1.6-11.5,4.8c-3.1,3.2-4.9,7.3-4.9,11.6c0,4.3,1.8,8.4,4.9,11.5c3.1,3.1,7.2,4.8,11.5,4.8
		c4.3,0,8.5-1.7,11.7-4.9c3.1-3,4.7-6.9,4.7-11.4C49.7,21.3,48.1,17.3,45,14.2z M33.1,22.5c-1.1-2.1-3.1-2.9-5.3-2.9
		c-3.3,0-5.9,2.3-5.9,6.2c0,4,2.4,6.2,6,6.2c2.3,0,4.2-1.2,5.3-3.1l-2.5-1.3c-0.6,1.3-1.4,1.7-2.5,1.7c-1.8,0-2.7-1.5-2.7-3.5
		c0-2,0.7-3.5,2.7-3.5c0.5,0,1.6,0.3,2.2,1.6L33.1,22.5z M39.4,19.6c2.2,0,4.2,0.8,5.3,2.9L42,23.9c-0.6-1.3-1.7-1.6-2.2-1.6
		c-2,0-2.7,1.5-2.7,3.5c0,2,0.8,3.5,2.7,3.5c1.1,0,1.9-0.4,2.5-1.7l2.5,1.3c-1.1,1.9-3,3.1-5.3,3.1c-3.5,0-6-2.2-6-6.2
		C33.5,21.9,36.1,19.6,39.4,19.6z"/>
	<path d="M73.2,29.1c0-3.3-2.4-4.7-5.3-5.3l-2.3-0.5c-0.6-0.1-1.9-0.3-2.4-0.6c-0.3-0.2-0.5-0.5-0.5-0.9c0-0.3,0.2-0.7,0.8-1.1
		c0.2-0.1,0.9-0.3,1.7-0.3c1.1,0,2.6,0.5,3.5,1.1c0.3,0.2,0.6,0.4,1,0.7l3.2-3c-0.5-0.3-1-0.6-1.5-1c-2.7-1.5-5.3-1.7-6.4-1.7
		c-3.9,0-6,1.8-6.8,3.3c-0.6,1.1-0.7,2.2-0.7,2.7c0,0.4,0.1,1.3,0.5,2.2c0.9,1.8,2.6,2.6,6.3,3.2c1.9,0.3,3.5,0.4,3.5,1.7
		c0,1-1.1,1.4-1.8,1.6c-0.6,0.1-1.1,0.2-1.3,0.2c-1.5,0-3.1-0.7-4.2-1.6c-0.3-0.2-0.6-0.5-1-0.9l-3.3,3c0.3,0.3,1.1,1,2.1,1.7
		c2.6,1.6,5.5,1.8,6.5,1.8c2.7,0,6-0.9,7.5-3.3C72.7,31.6,73.2,30.5,73.2,29.1z"/>
	<path d="M92.1,27c0-0.9,0-4.5-2-7.3c-2.2-3.1-5.7-3.2-6.9-3.2c-3.9,0-5.7,1.6-6.8,2.8c-2.2,2.5-2.3,5.8-2.3,6.9
		c0,4,1.8,7.5,5.8,8.7c1.4,0.4,2.7,0.5,3.2,0.5c1.3,0,4.7-0.2,7.3-3.1c0.4-0.5,0.8-1,1.5-2l-3.9-2c-0.2,0.4-1,2.2-2.8,2.9
		c-0.7,0.3-1.4,0.3-1.7,0.3c-2.1,0-3.6-1.3-4-3.4c-0.1-0.5-0.1-0.9-0.1-1.1H92.1z M86.7,23.8h-7.2c0.1-0.7,0.3-1.1,0.4-1.4
		c0.3-0.6,1.2-2.1,3.3-2.1c0.3,0,0.9,0,1.6,0.3C86.6,21.4,86.7,23.2,86.7,23.8z"/>
	<path d="M109.7,34.8c-0.4-0.6-0.5-1.2-0.5-2.8V21.7c0-1-0.2-1.5-0.4-2c-1.2-2.6-4.6-3.1-7-3.1c-0.4,0-1.3,0-2.3,0.1
		c-0.6,0.1-2.6,0.4-4,1.8c-1.3,1.3-1.4,2.9-1.4,3.6h5.2c0.1-0.4,0.2-0.6,0.2-0.8c0.3-0.6,1-1.3,2.5-1.3c1.9,0,2,1.5,2,2.1v1
		c-3.4,0.6-5.8,1.1-7.1,1.7c-0.8,0.3-3.6,1.9-3.6,5.1c0,0.9,0.2,1.7,0.6,2.5c0.6,1.2,2,2.9,5.2,2.9c2.2,0,3.7-0.9,4.4-1.3
		c0.4-0.2,0.7-0.5,1.1-0.7v1.6H109.7z M104.1,26.3c0,1.7-0.1,3.3-1.6,4.4c-0.2,0.2-1.1,0.7-2,0.7c-1.1,0-1.6-0.6-1.8-1
		c-0.2-0.3-0.2-0.7-0.2-0.8c0-0.7,0.3-1.4,1.6-2c0.2-0.1,0.4-0.2,0.6-0.2L104.1,26.3z"/>
	<path d="M123.1,21.5v-4.6c-0.6,0.1-1.6,0.1-3.1,0.7c-1.2,0.5-1.6,1-2.1,1.3v-1.8h-5.1v17.7h5.2v-10c0-1.3,0.2-2.2,1.6-2.7
		c0.6-0.2,1.5-0.3,1.6-0.4L123.1,21.5z"/>
	<path d="M140.2,30.6l-3.9-2c-0.2,0.6-0.3,0.8-0.5,1.1c-0.3,0.4-1.2,1.6-2.9,1.6c-1.2,0-1.9-0.6-2.2-0.9c-1.2-1-1.7-3-1.7-4.5
		c0-0.3,0.1-3.4,1.9-4.7c0.8-0.6,1.5-0.6,1.9-0.6c1.6,0,2.6,1.1,2.9,1.5c0.3,0.4,0.5,0.9,0.6,1l3.9-2.2c-0.3-0.5-0.5-0.7-0.7-1
		c-2.4-3-5.5-3.3-6.9-3.3c-1.6,0-6,0.4-8,5c-0.9,2-0.9,3.7-0.9,4.5c0,3.5,1.3,6.7,4.7,8.3c1.8,0.9,3.4,1,4.1,1
		c1.3,0,4.3-0.3,6.7-3.1C139.4,31.8,139.8,31.2,140.2,30.6z"/>
	<path d="M157.9,34.8V23.1c0-1.7-0.2-2.6-0.5-3.4c-0.2-0.5-0.5-1-0.8-1.4c-0.6-0.6-1.9-1.8-4.3-1.8c-0.7,0-2.4,0.1-4,1.4
		c-0.5,0.3-0.9,0.9-1,1l0-8.1H142v24h5.2V26c0-2.4,0.1-3.7,1.3-4.5c0.6-0.4,1.3-0.5,1.6-0.5c0.5,0,1,0.1,1.5,0.4
		c1.3,0.9,1.2,2.7,1.2,4v9.3H157.9z"/>
</g>
</svg>
